<?xml version="1.0" standalone="no"?>
<!DOCTYPE svg PUBLIC "-//W3C//DTD SVG 20010904//EN"
 "http://www.w3.org/TR/2001/REC-SVG-20010904/DTD/svg10.dtd">
<svg version="1.0" xmlns="http://www.w3.org/2000/svg"
 width="280.000000pt" height="280.000000pt" viewBox="0 0 280.000000 280.000000"
 preserveAspectRatio="xMidYMid meet">
<metadata>
Created by potrace 1.11, written by Peter Selinger 2001-2013
</metadata>
<g transform="translate(0.000000,280.000000) scale(0.100000,-0.100000)"
fill="#000000" stroke="none">
<path d="M695 2794 c-97 -20 -162 -38 -172 -46 -7 -6 -13 -8 -13 -4 0 11 -153
-74 -200 -112 -99 -79 -185 -187 -230 -287 -78 -173 -74 -123 -77 -915 -2
-704 0 -756 33 -865 87 -282 339 -506 623 -552 25 -5 366 -8 756 -8 662 0 715
1 780 19 39 10 76 23 83 28 6 6 12 8 12 5 0 -12 156 75 200 111 144 117 239
261 286 437 18 66 19 116 19 800 l0 730 -23 75 c-28 89 -81 210 -93 210 -5 0
-9 5 -9 11 0 15 -61 90 -118 146 -98 97 -237 171 -397 210 -31 7 -1425 14
-1460 7z"/>
</g>
</svg>
