<svg width="227" height="227" viewBox="0 0 227 227" fill="none" xmlns="http://www.w3.org/2000/svg">
<g clip-path="url(#clip0)">
<path d="M142.762 137.441C142.762 134.994 140.775 133.008 138.328 133.008C135.881 133.008 133.895 134.994 133.895 137.441C133.895 139.889 135.881 141.875 138.328 141.875C140.775 141.875 142.762 139.889 142.762 137.441Z" fill="#03DA8C"/>
<path d="M30.273 221.804L89.4526 162.625C103.974 172.266 120.791 177.344 138.328 177.344C187.222 177.344 227 137.566 227 88.6719C227 39.7782 187.222 -1.73876e-06 138.328 -3.87597e-06C89.4345 -6.01318e-06 49.6563 39.7782 49.6563 88.6719C49.6563 106.209 54.7349 123.026 64.3749 137.547L48.0172 153.905C48.0149 153.907 48.0127 153.91 48.0101 153.912L5.19573 196.727C1.84527 200.077 6.31849e-06 204.53 6.1115e-06 209.266C5.9045e-06 214.001 1.84527 218.454 5.19441 221.803C8.5431 225.154 12.9962 227 17.7344 227C22.4726 227 26.9257 225.154 30.273 221.804ZM73.7187 135.462C73.7183 135.462 73.7183 135.462 73.7178 135.461C63.7777 121.776 58.5234 105.597 58.5234 88.6719C58.5234 44.6676 94.3238 8.86718 138.328 8.86718C182.332 8.86719 218.133 44.6676 218.133 88.6719C218.133 132.676 182.332 168.477 138.328 168.477C121.403 168.477 105.224 163.222 91.5382 153.282C84.687 148.309 78.6914 142.313 73.7187 135.462ZM69.6992 144.764C73.4531 149.353 77.6478 153.547 82.2361 157.301L69.6575 169.879C65.1428 166.054 60.9455 161.857 57.1207 157.342L69.6992 144.764ZM11.4657 215.534C9.78982 213.858 8.86719 211.632 8.86719 209.266C8.86719 206.899 9.78982 204.673 11.4657 202.997L50.8338 163.629C54.6871 168.119 58.8808 172.313 63.3707 176.166L24.0013 215.535C22.328 217.21 20.1028 218.133 17.7344 218.133C15.366 218.133 13.1407 217.21 11.4657 215.534Z" fill="#BBBBBB"/>
<path d="M209.266 88.6719C209.266 49.5565 177.444 17.7344 138.328 17.7344C99.2128 17.7344 67.3906 49.5565 67.3906 88.6719C67.3906 127.787 99.2128 159.609 138.328 159.609C177.444 159.609 209.266 127.787 209.266 88.6719ZM76.2578 88.6719C76.2578 54.4463 104.103 26.6016 138.328 26.6016C172.554 26.6016 200.398 54.4463 200.398 88.6719C200.398 122.897 172.554 150.742 138.328 150.742C104.103 150.742 76.2578 122.897 76.2578 88.6719Z" fill="#BBBBBB"/>
<path d="M157.36 138.357C167.297 134.539 175.792 127.892 181.928 119.133C188.21 110.165 191.531 99.6322 191.531 88.6719C191.531 86.2236 189.546 84.2383 187.098 84.2383C184.649 84.2383 182.664 86.2236 182.664 88.6719C182.664 106.893 171.217 123.534 154.18 130.08C152.417 130.757 151.335 132.437 151.335 134.219C151.335 134.748 151.43 135.286 151.631 135.808C152.509 138.094 155.074 139.235 157.36 138.357Z" fill="#03DA8C"/>
</g>
<defs>
<clipPath id="clip0">
<rect x="227" width="227" height="227" transform="rotate(90 227 0)" fill="white"/>
</clipPath>
</defs>
</svg>
